<?xml version="1.0" encoding="utf-8"?>
<!-- Generator: Adobe Illustrator 26.3.1, SVG Export Plug-In . SVG Version: 6.00 Build 0)  -->
<svg version="1.1" id="1" xmlns="http://www.w3.org/2000/svg" xmlns:xlink="http://www.w3.org/1999/xlink" x="0px" y="0px"
	 viewBox="0 0 256 256" style="enable-background:new 0 0 256 256;" xml:space="preserve">
<g>
	<g>
		<path d="M35.71,53.75c14.04,17.77,26.93,36.46,38.6,55.88c11.7,19.47,22.18,39.68,31.33,60.48c5.14,11.68,9.84,23.56,14.13,35.59
			c0.45,1.27,1.7,2.12,3.08,1.75c1.23-0.34,2.2-1.8,1.75-3.08c-7.74-21.74-16.87-43-27.32-63.58
			c-10.38-20.45-22.07-40.25-34.98-59.21c-7.3-10.73-15-21.18-23.04-31.36c-0.84-1.06-2.66-0.88-3.54,0
			C34.67,51.27,34.87,52.69,35.71,53.75L35.71,53.75z"/>
	</g>
</g>
<g>
	<g>
		<path d="M122.91,50.62c-8.25,20.73-16.5,41.47-24.74,62.2c-8.22,20.66-16.43,41.31-24.65,61.97c-2.28,5.73-4.54,11.47-6.84,17.2
			c-1.68,4.18-3.66,8.79-7.53,11.39c-2.66,1.78-0.16,6.12,2.52,4.32c3.83-2.58,6.34-6.39,8.21-10.54c2.18-4.83,4.01-9.84,5.97-14.77
			c4.19-10.52,8.37-21.04,12.56-31.57c8.37-21.04,16.74-42.09,25.11-63.13c4.74-11.91,9.48-23.83,14.22-35.74
			c0.5-1.26-0.55-2.75-1.75-3.08C124.56,48.48,123.41,49.36,122.91,50.62L122.91,50.62z"/>
	</g>
</g>
<g>
	<g>
		<path d="M138.33,204.26c1.23-28.07,3.52-56.1,6.86-84c1.54-12.88,2.96-25.91,6-38.53c1.42-5.89,3.23-11.73,5.76-17.25
			c1.22-2.65,2.51-5.49,4.28-7.83c1.65-2.19,3.92-2.94,6.59-2.9c5.28,0.07,10.83,1.9,15.67,3.89c4.75,1.95,9.31,4.59,13.36,7.75
			c4.21,3.29,7.99,7.22,10.98,11.65c3.41,5.03,5.82,10.62,7.69,16.38c1.98,6.09,3.48,12.33,4.92,18.57
			c1.54,6.64,2.9,13.35,3.68,20.13c0.76,6.61,1.02,13.29,0.42,19.92c-0.53,5.89-1.58,12.25-4.43,17.51
			c-1.27,2.35-2.95,4.46-5.15,6.01c-2.49,1.75-5.3,3.02-8.07,4.28c-5.79,2.63-11.75,4.88-17.82,6.78
			c-12.35,3.86-25.15,6.22-38.06,6.94c-3.21,0.18-6.42,0.26-9.63,0.25c-3.22-0.01-3.22,4.99,0,5c13.68,0.05,27.38-1.64,40.64-5
			c6.52-1.66,12.94-3.72,19.21-6.18c3.19-1.25,6.34-2.6,9.45-4.05c2.94-1.37,5.81-2.82,8.34-4.86c4.75-3.83,7.28-9.69,8.71-15.48
			c1.67-6.73,2.27-13.75,2.13-20.67c-0.28-14.09-3.45-28.04-6.97-41.63c-3.2-12.34-7.68-24.34-16.61-33.72
			c-7.82-8.21-18.11-14.08-29.07-16.93c-5.7-1.49-12.74-2.97-17.75,1.04c-2.4,1.92-3.9,4.8-5.29,7.48c-1.51,2.91-2.82,5.93-3.98,9
			c-4.68,12.39-6.54,25.62-8.27,38.68c-3.82,28.84-6.51,57.83-8.07,86.88c-0.19,3.63-0.37,7.26-0.53,10.9
			C133.19,207.47,138.19,207.47,138.33,204.26L138.33,204.26z"/>
	</g>
</g>
</svg>
